<svg width="49" height="32" viewBox="0 0 49 32" fill="none" xmlns="http://www.w3.org/2000/svg">
<rect x="0.5" y="0.5" width="48" height="31" rx="4.5" stroke="#008686"/>
<path d="M20.9133 15.1933C21.8733 17.08 23.42 18.62 25.3067 19.5867L26.7733 18.12C26.9533 17.94 27.22 17.88 27.4533 17.96C28.2 18.2067 29.0067 18.34 29.8333 18.34C30.2 18.34 30.5 18.64 30.5 19.0067V21.3333C30.5 21.7 30.2 22 29.8333 22C23.5733 22 18.5 16.9267 18.5 10.6667C18.5 10.3 18.8 10 19.1667 10H21.5C21.8667 10 22.1667 10.3 22.1667 10.6667C22.1667 11.5 22.3 12.3 22.5467 13.0467C22.62 13.28 22.5667 13.54 22.38 13.7267L20.9133 15.1933Z" fill="#008686"/>
</svg>
