<svg width="1411" height="632" viewBox="0 0 1411 632" fill="none" xmlns="http://www.w3.org/2000/svg">
<g filter="url(#filter0_d_508_1415)">
<rect width="70.8119" height="6.06959" transform="matrix(1 0 0 -1 36 345.209)" fill="#D9D9D9"/>
<rect width="70.8119" height="6.06959" transform="matrix(1 0 0 -1 36 333.069)" fill="#D9D9D9"/>
<rect width="70.8119" height="6.06959" transform="matrix(1 0 0 -1 221.729 345.209)" fill="#D9D9D9"/>
<rect width="70.8119" height="6.06959" transform="matrix(1 0 0 -1 221.729 333.069)" fill="#D9D9D9"/>
<rect width="70.8119" height="6.06959" transform="matrix(1 0 0 -1 407.459 345.209)" fill="#D9D9D9"/>
<rect width="70.8119" height="6.06959" transform="matrix(1 0 0 -1 407.459 333.069)" fill="#D9D9D9"/>
<rect width="70.8119" height="6.06959" transform="matrix(1 0 0 -1 593.188 345.209)" fill="#D9D9D9"/>
<rect width="70.8119" height="6.06959" transform="matrix(1 0 0 -1 593.188 333.069)" fill="#D9D9D9"/>
<rect width="70.8119" height="6.06959" transform="matrix(1 0 0 -1 778.918 345.209)" fill="#D9D9D9"/>
<rect width="70.8119" height="6.06959" transform="matrix(1 0 0 -1 778.918 333.069)" fill="#D9D9D9"/>
<rect width="70.8119" height="6.06959" transform="matrix(1 0 0 -1 964.646 345.209)" fill="#D9D9D9"/>
<rect width="70.8119" height="6.06959" transform="matrix(1 0 0 -1 964.646 333.069)" fill="#D9D9D9"/>
<rect width="70.8119" height="6.06959" transform="matrix(1 0 0 -1 1150.38 345.209)" fill="#D9D9D9"/>
<rect width="70.8119" height="6.06959" transform="matrix(1 0 0 -1 1150.38 333.069)" fill="#D9D9D9"/>
<rect width="70.8119" height="6.06959" transform="matrix(1 0 0 -1 1336.11 345.209)" fill="#D9D9D9"/>
<rect width="70.8119" height="6.06959" transform="matrix(1 0 0 -1 1336.11 333.069)" fill="#D9D9D9"/>
<path d="M0 0H1172C1175.31 0 1178 2.68629 1178 6C1178 9.31371 1175.31 12 1172 12H0V0Z" fill="url(#paint0_linear_508_1415)"/>
<path d="M460 112C456.686 112 454 109.314 454 106V0H466V106C466 109.314 463.314 112 460 112Z" fill="url(#paint1_linear_508_1415)"/>
<path d="M978 118C974.686 118 972 115.314 972 112V0H984V112C984 115.314 981.314 118 978 118Z" fill="url(#paint2_linear_508_1415)"/>
<rect x="395.5" y="109.5" width="651" height="470" fill="#1A1A1A"/>
<rect x="395.5" y="109.5" width="651" height="470" stroke="white" stroke-width="5"/>
<rect x="398" y="278" width="646" height="1" fill="#595959"/>
<rect x="398" y="282.143" width="646" height="1" fill="#595959"/>
<rect x="398" y="286.286" width="646" height="1" fill="#595959"/>
<rect x="398" y="290.429" width="646" height="1" fill="#595959"/>
<rect x="398" y="294.571" width="646" height="1" fill="#595959"/>
<rect x="398" y="298.714" width="646" height="1" fill="#595959"/>
<rect x="398" y="302.857" width="646" height="1" fill="#595959"/>
<rect x="398" y="307" width="646" height="1" fill="#595959"/>
<rect x="398" y="351" width="646" height="1" fill="#595959"/>
<rect x="398" y="355" width="646" height="1" fill="#595959"/>
<rect x="398" y="359" width="646" height="1" fill="#595959"/>
<rect x="398" y="363" width="646" height="1" fill="#595959"/>
<rect x="398" y="367" width="646" height="1" fill="#595959"/>
<rect x="398" y="371" width="646" height="1" fill="#595959"/>
<rect x="398" y="375" width="646" height="1" fill="#595959"/>
<rect x="398" y="379" width="646" height="1" fill="#595959"/>
<rect x="398" y="423" width="646" height="1" fill="#595959"/>
<rect x="398" y="427" width="646" height="1" fill="#595959"/>
<rect x="398" y="431" width="646" height="1" fill="#595959"/>
<rect x="398" y="435" width="646" height="1" fill="#595959"/>
<rect x="398" y="439" width="646" height="1" fill="#595959"/>
<rect x="398" y="443" width="646" height="1" fill="#595959"/>
<rect x="398" y="447" width="646" height="1" fill="#595959"/>
<rect x="398" y="451" width="646" height="1" fill="#595959"/>
<rect x="398" y="495" width="646" height="1" fill="#595959"/>
<rect x="398" y="499" width="646" height="1" fill="#595959"/>
<rect x="398" y="503" width="646" height="1" fill="#595959"/>
<rect x="398" y="507" width="646" height="1" fill="#595959"/>
<rect x="398" y="511" width="646" height="1" fill="#595959"/>
<rect x="398" y="515" width="646" height="1" fill="#595959"/>
<rect x="398" y="519" width="646" height="1" fill="#595959"/>
<rect x="398" y="523" width="646" height="1" fill="#595959"/>
<path d="M517.112 199.705L514.166 202.651L524.476 207.07L528.897 217.382L531.843 214.437L530.37 207.07L537.272 200.168L544.793 216.218L547.583 213.428L545.104 192.339L550.995 186.445C551.393 186.061 551.711 185.601 551.929 185.092C552.147 184.584 552.262 184.037 552.267 183.484C552.272 182.931 552.166 182.382 551.957 181.87C551.747 181.358 551.438 180.893 551.047 180.502C550.656 180.11 550.19 179.801 549.678 179.592C549.166 179.382 548.618 179.277 548.064 179.281C547.511 179.286 546.964 179.401 546.456 179.62C545.948 179.838 545.488 180.155 545.104 180.553L539.056 186.601L517.966 184.12L515.331 186.757L531.256 194.403L524.479 201.18L517.112 199.705Z" fill="white"/>
<path d="M606.796 210.54C604.276 210.54 601.996 210 599.956 208.92C597.94 207.816 596.344 206.268 595.168 204.276C594.016 202.284 593.44 200.004 593.44 197.436C593.44 194.868 594.016 192.588 595.168 190.596C596.344 188.604 597.94 187.056 599.956 185.952C601.996 184.848 604.276 184.296 606.796 184.296C609.292 184.296 611.548 184.848 613.564 185.952C615.604 187.056 617.2 188.604 618.352 190.596C619.528 192.588 620.116 194.868 620.116 197.436C620.116 200.004 619.528 202.284 618.352 204.276C617.2 206.244 615.604 207.78 613.564 208.884C611.548 209.988 609.292 210.54 606.796 210.54ZM606.796 206.4C608.404 206.4 609.868 206.04 611.188 205.32C612.508 204.576 613.552 203.532 614.32 202.188C615.112 200.82 615.508 199.236 615.508 197.436C615.508 195.66 615.124 194.1 614.356 192.756C613.588 191.388 612.544 190.332 611.224 189.588C609.904 188.844 608.428 188.472 606.796 188.472C605.164 188.472 603.676 188.844 602.332 189.588C601.012 190.332 599.968 191.388 599.2 192.756C598.432 194.1 598.048 195.66 598.048 197.436C598.048 199.236 598.432 200.82 599.2 202.188C599.992 203.532 601.048 204.576 602.368 205.32C603.712 206.04 605.188 206.4 606.796 206.4ZM630.494 210.54C628.166 210.54 626.426 209.916 625.274 208.668C624.122 207.396 623.546 205.716 623.546 203.628V192.72H628.082V203.196C628.082 205.716 629.258 206.976 631.61 206.976C632.642 206.976 633.614 206.736 634.526 206.256C635.438 205.752 636.206 205.008 636.83 204.024V192.72H641.366V210H636.974V207.66C636.158 208.644 635.186 209.376 634.058 209.856C632.93 210.312 631.742 210.54 630.494 210.54ZM645.699 192.72H650.091V195.492C650.787 194.556 651.771 193.86 653.043 193.404C654.339 192.948 655.815 192.72 657.471 192.72V196.176C655.719 196.176 654.195 196.452 652.899 197.004C651.627 197.532 650.739 198.372 650.235 199.524V210H645.699V192.72ZM673.332 184.836H683.412C686.172 184.836 688.38 185.568 690.036 187.032C691.716 188.496 692.556 190.5 692.556 193.044C692.556 195.684 691.728 197.7 690.072 199.092C688.416 200.46 686.184 201.144 683.376 201.144H677.904V210H673.332V184.836ZM682.836 197.364C686.268 197.364 687.984 195.924 687.984 193.044C687.984 190.092 686.268 188.616 682.836 188.616H677.904V197.364H682.836ZM699.812 210.54C697.748 210.54 696.056 210 694.736 208.92C693.416 207.816 692.756 206.34 692.756 204.492C692.756 202.572 693.38 201.072 694.628 199.992C695.876 198.912 697.628 198.372 699.884 198.372C702.068 198.372 703.952 198.816 705.536 199.704V199.236C705.536 198.012 705.152 197.124 704.384 196.572C703.64 196.02 702.428 195.744 700.748 195.744C699.692 195.744 698.648 195.852 697.616 196.068C696.584 196.26 695.672 196.536 694.88 196.896V193.332C695.6 192.996 696.56 192.72 697.76 192.504C698.984 192.288 700.16 192.18 701.288 192.18C704.288 192.18 706.508 192.828 707.948 194.124C709.388 195.396 710.108 197.172 710.108 199.452V210H705.824V208.308C705.08 209.028 704.228 209.58 703.268 209.964C702.332 210.348 701.18 210.54 699.812 210.54ZM700.928 207.228C701.936 207.228 702.848 207.036 703.664 206.652C704.48 206.244 705.104 205.692 705.536 204.996V203.088C704.216 202.152 702.704 201.684 701 201.684C698.576 201.684 697.364 202.62 697.364 204.492C697.364 205.404 697.664 206.088 698.264 206.544C698.888 207 699.776 207.228 700.928 207.228ZM722.947 210.54C720.931 210.54 719.155 210.18 717.619 209.46C716.107 208.74 714.931 207.696 714.091 206.328C713.251 204.96 712.831 203.316 712.831 201.396C712.831 199.476 713.251 197.832 714.091 196.464C714.955 195.072 716.143 194.016 717.655 193.296C719.191 192.552 720.979 192.18 723.019 192.18C725.707 192.18 727.855 192.708 729.463 193.764V197.4C727.903 196.296 725.911 195.744 723.487 195.744C721.639 195.744 720.163 196.212 719.059 197.148C717.979 198.06 717.439 199.476 717.439 201.396C717.439 203.292 717.979 204.696 719.059 205.608C720.163 206.52 721.615 206.976 723.415 206.976C725.839 206.976 727.927 206.4 729.679 205.248V208.848C728.815 209.424 727.831 209.844 726.727 210.108C725.647 210.396 724.387 210.54 722.947 210.54ZM733.273 183.396H737.809V200.316L744.685 192.72H750.013L742.309 201.18L750.877 210H745.549L737.809 202.008V210H733.273V183.396ZM758.84 210.54C756.776 210.54 755.084 210 753.764 208.92C752.444 207.816 751.784 206.34 751.784 204.492C751.784 202.572 752.408 201.072 753.656 199.992C754.904 198.912 756.656 198.372 758.912 198.372C761.096 198.372 762.98 198.816 764.564 199.704V199.236C764.564 198.012 764.18 197.124 763.412 196.572C762.668 196.02 761.456 195.744 759.776 195.744C758.72 195.744 757.676 195.852 756.644 196.068C755.612 196.26 754.7 196.536 753.908 196.896V193.332C754.628 192.996 755.588 192.72 756.788 192.504C758.012 192.288 759.188 192.18 760.316 192.18C763.316 192.18 765.536 192.828 766.976 194.124C768.416 195.396 769.136 197.172 769.136 199.452V210H764.852V208.308C764.108 209.028 763.256 209.58 762.296 209.964C761.36 210.348 760.208 210.54 758.84 210.54ZM759.956 207.228C760.964 207.228 761.876 207.036 762.692 206.652C763.508 206.244 764.132 205.692 764.564 204.996V203.088C763.244 202.152 761.732 201.684 760.028 201.684C757.604 201.684 756.392 202.62 756.392 204.492C756.392 205.404 756.692 206.088 757.292 206.544C757.916 207 758.804 207.228 759.956 207.228ZM782.425 218.28C781.273 218.28 780.121 218.172 778.969 217.956C777.817 217.74 776.857 217.452 776.089 217.092V213.492C777.961 214.308 780.073 214.716 782.425 214.716C784.537 214.716 786.049 214.272 786.961 213.384C787.897 212.496 788.365 211.176 788.365 209.424V208.308C787.549 209.052 786.577 209.616 785.449 210C784.321 210.36 783.109 210.54 781.813 210.54C780.061 210.54 778.477 210.156 777.061 209.388C775.645 208.596 774.541 207.504 773.749 206.112C772.957 204.72 772.561 203.124 772.561 201.324C772.561 199.5 772.945 197.904 773.713 196.536C774.505 195.144 775.585 194.076 776.953 193.332C778.345 192.564 779.917 192.18 781.669 192.18C783.133 192.18 784.393 192.384 785.449 192.792C786.505 193.176 787.525 193.824 788.509 194.736V192.72H792.901V208.956C792.901 211.932 792.037 214.224 790.309 215.832C788.605 217.464 785.977 218.28 782.425 218.28ZM782.785 206.976C784.081 206.976 785.233 206.628 786.241 205.932C787.273 205.212 787.981 204.264 788.365 203.088V199.596C787.957 198.42 787.249 197.484 786.241 196.788C785.233 196.092 784.081 195.744 782.785 195.744C781.153 195.744 779.809 196.26 778.753 197.292C777.697 198.324 777.169 199.668 777.169 201.324C777.169 202.98 777.697 204.336 778.753 205.392C779.809 206.448 781.153 206.976 782.785 206.976ZM806.943 210.54C803.727 210.54 801.183 209.736 799.311 208.128C797.439 206.52 796.503 204.276 796.503 201.396C796.503 198.564 797.331 196.32 798.987 194.664C800.643 193.008 803.007 192.18 806.079 192.18C808.095 192.18 809.811 192.564 811.227 193.332C812.667 194.1 813.747 195.156 814.467 196.5C815.187 197.82 815.547 199.332 815.547 201.036V203.124H800.823C801.135 205.692 803.367 206.976 807.519 206.976C808.623 206.976 809.751 206.88 810.903 206.688C812.055 206.496 813.063 206.232 813.927 205.896V209.388C813.111 209.724 812.055 210 810.759 210.216C809.487 210.432 808.215 210.54 806.943 210.54ZM811.263 200.028C811.215 198.66 810.723 197.604 809.787 196.86C808.875 196.116 807.615 195.744 806.007 195.744C804.423 195.744 803.175 196.128 802.263 196.896C801.351 197.664 800.871 198.708 800.823 200.028H811.263ZM825.892 210.54C824.644 210.54 823.312 210.396 821.896 210.108C820.48 209.82 819.376 209.424 818.584 208.92V205.068C819.52 205.644 820.636 206.112 821.932 206.472C823.228 206.808 824.452 206.976 825.604 206.976C826.756 206.976 827.596 206.88 828.124 206.688C828.652 206.472 828.916 206.088 828.916 205.536C828.916 205.104 828.772 204.756 828.484 204.492C828.22 204.204 827.776 203.952 827.152 203.736C826.552 203.496 825.616 203.208 824.344 202.872C822.904 202.464 821.764 202.044 820.924 201.612C820.108 201.18 819.484 200.64 819.052 199.992C818.644 199.32 818.44 198.456 818.44 197.4C818.44 195.672 819.124 194.376 820.492 193.512C821.86 192.624 823.708 192.18 826.036 192.18C827.236 192.18 828.424 192.3 829.6 192.54C830.8 192.756 831.736 193.068 832.408 193.476V197.184C831.688 196.752 830.812 196.404 829.78 196.14C828.748 195.876 827.692 195.744 826.612 195.744C825.436 195.744 824.548 195.864 823.948 196.104C823.348 196.32 823.048 196.752 823.048 197.4C823.048 197.832 823.204 198.18 823.516 198.444C823.852 198.684 824.284 198.9 824.812 199.092C825.34 199.26 826.3 199.524 827.692 199.884C829.18 200.292 830.344 200.736 831.184 201.216C832.024 201.696 832.624 202.272 832.984 202.944C833.344 203.616 833.524 204.456 833.524 205.464C833.524 207 832.864 208.236 831.544 209.172C830.248 210.084 828.364 210.54 825.892 210.54Z" fill="white"/>
<path d="M597.376 307.964L600.26 304.94H607.176L609.92 307.964H597.376ZM596.564 294.216L599.56 297.128V303.988L596.564 306.732V294.216ZM599.784 295.224C599.093 294.683 598.44 294.169 597.824 293.684L599.784 292.2H607.428L609.388 293.684L607.428 295.224H599.784ZM597.348 279.516H609.836L607.12 282.54H600.204L597.348 279.516ZM596.48 293.236V280.72L599.476 283.436V290.38L596.48 293.236ZM639.673 286.18V281.056L647.989 290.968L656.305 281.056V286.18L650.145 293.544L656.305 300.88V306.032L647.989 296.12L639.673 306.032V300.88L645.833 293.544L639.673 286.18ZM685.722 294.216L688.746 297.128V303.988L685.722 306.732V294.216ZM688.942 295.224C688.289 294.683 687.635 294.169 686.982 293.684L688.942 292.2H696.614L698.574 293.684L696.614 295.224H688.942ZM686.534 279.516H699.022L696.306 282.54H689.39L686.534 279.516ZM685.638 293.236V280.72L688.662 283.436V290.38L685.638 293.236ZM699.918 280.72V293.236L696.894 290.52V283.604L699.918 280.72ZM731.743 307.964L734.627 304.94H741.543L744.287 307.964H731.743ZM730.931 294.216L733.927 297.128V303.988L730.931 306.732V294.216ZM730.847 293.236V280.72L733.843 283.436V290.38L730.847 293.236ZM776.112 307.964L778.996 304.94H785.912L788.628 307.964H776.112ZM775.272 294.216L778.296 297.128V303.988L775.272 306.732V294.216ZM789.524 306.732L786.5 303.848V296.96L789.524 294.216V306.732ZM776.084 279.516H788.6L785.828 282.54H778.968L776.084 279.516ZM775.188 293.236V280.72L778.212 283.436V290.38L775.188 293.236ZM789.44 280.72V293.236L786.416 290.52V283.604L789.44 280.72ZM823.113 297.8V303.988L820.089 306.732V294.216L823.113 297.8ZM829.357 297.072L833.669 301.608L833.361 305.64C830.692 302.84 829.329 301.412 829.273 301.356C829.236 301.3 829.18 301.244 829.105 301.188C829.031 301.132 828.975 301.076 828.937 301.02L824.709 296.596L829.357 297.072ZM820.089 294.216L823.113 297.128V303.988L820.089 306.732V294.216ZM823.309 295.224C822.656 294.683 822.003 294.169 821.349 293.684L823.309 292.2H830.981L832.941 293.684L830.981 295.224H823.309ZM820.901 279.516H833.389L830.673 282.54H823.757L820.901 279.516ZM820.005 293.236V280.72L823.029 283.436V290.38L820.005 293.236ZM834.285 280.72V293.236L831.261 290.52V283.604L834.285 280.72ZM824.709 296.596H828.909C829.525 297.249 830.403 298.183 831.541 299.396C832.699 300.591 833.408 301.328 833.669 301.608L833.361 305.64C830.692 302.84 829.329 301.412 829.273 301.356C829.236 301.3 829.18 301.244 829.105 301.188C829.031 301.132 828.975 301.076 828.937 301.02L824.709 296.596ZM866.11 307.964L868.994 304.94H875.91L878.654 307.964H866.11ZM865.298 294.216L868.294 297.128V303.988L865.298 306.732V294.216ZM868.518 295.224C867.828 294.683 867.174 294.169 866.558 293.684L868.518 292.2H876.162L878.122 293.684L876.162 295.224H868.518ZM866.082 279.516H878.57L875.854 282.54H868.938L866.082 279.516ZM865.214 293.236V280.72L868.21 283.436V290.38L865.214 293.236ZM596.956 379.964L599.84 376.94H606.756L609.472 379.964H596.956ZM596.116 366.216L599.14 369.128V375.988L596.116 378.732V366.216ZM610.368 378.732L607.344 375.848V368.96L610.368 366.216V378.732ZM596.928 351.516H609.444L606.672 354.54H599.812L596.928 351.516ZM596.032 365.236V352.72L599.056 355.436V362.38L596.032 365.236ZM610.284 352.72V365.236L607.26 362.52V355.604L610.284 352.72ZM641.745 379.964L644.629 376.94H651.545L654.261 379.964H641.745ZM640.905 366.216L643.929 369.128V375.988L640.905 378.732V366.216ZM655.157 378.732L652.133 375.848V368.96L655.157 366.216V378.732ZM640.821 365.236V352.72L643.845 355.436V362.38L640.821 365.236ZM655.073 352.72V365.236L652.049 362.52V355.604L655.073 352.72ZM688.746 369.8V375.988L685.722 378.732V366.216L688.746 369.8ZM694.99 369.072L699.302 373.608L698.994 377.64C696.325 374.84 694.962 373.412 694.906 373.356C694.869 373.3 694.813 373.244 694.738 373.188C694.663 373.132 694.607 373.076 694.57 373.02L690.342 368.596L694.99 369.072ZM685.722 366.216L688.746 369.128V375.988L685.722 378.732V366.216ZM688.942 367.224C688.289 366.683 687.635 366.169 686.982 365.684L688.942 364.2H696.614L698.574 365.684L696.614 367.224H688.942ZM686.534 351.516H699.022L696.306 354.54H689.39L686.534 351.516ZM685.638 365.236V352.72L688.662 355.436V362.38L685.638 365.236ZM699.918 352.72V365.236L696.894 362.52V355.604L699.918 352.72ZM690.342 368.596H694.542C695.158 369.249 696.035 370.183 697.174 371.396C698.331 372.591 699.041 373.328 699.302 373.608L698.994 377.64C696.325 374.84 694.962 373.412 694.906 373.356C694.869 373.3 694.813 373.244 694.738 373.188C694.663 373.132 694.607 373.076 694.57 373.02L690.342 368.596ZM604.74 450.732L601.716 447.848V440.96L604.74 438.216V450.732ZM594.604 426.036C593.951 425.513 593.297 425.019 592.644 424.552L594.604 423.04H611.796L613.756 424.552L611.796 426.036H604.656V437.236L601.632 434.52V427.604L603.284 426.036H594.604ZM641.745 451.964L644.629 448.94H651.545L654.261 451.964H641.745ZM640.905 438.216L643.929 441.128V447.988L640.905 450.732V438.216ZM655.157 450.732L652.133 447.848V440.96L655.157 438.216V450.732ZM641.717 423.516H654.233L651.461 426.54H644.601L641.717 423.516ZM640.821 437.236V424.72L643.845 427.436V434.38L640.821 437.236ZM655.073 424.72V437.236L652.049 434.52V427.604L655.073 424.72ZM686.534 451.964L689.418 448.94H696.334L699.05 451.964H686.534ZM685.694 438.216L688.718 441.128V447.988L685.694 450.732V438.216ZM699.946 450.732L696.922 447.848V440.96L699.946 438.216V450.732ZM685.61 437.236V424.72L688.634 427.436V434.38L685.61 437.236ZM699.862 424.72V437.236L696.838 434.52V427.604L699.862 424.72ZM733.535 441.8V447.988L730.511 450.732V438.216L733.535 441.8ZM739.779 441.072L744.091 445.608L743.783 449.64C741.114 446.84 739.751 445.412 739.695 445.356C739.658 445.3 739.602 445.244 739.527 445.188C739.453 445.132 739.397 445.076 739.359 445.02L735.131 440.596L739.779 441.072ZM730.511 438.216L733.535 441.128V447.988L730.511 450.732V438.216ZM733.731 439.224C733.078 438.683 732.425 438.169 731.771 437.684L733.731 436.2H741.403L743.363 437.684L741.403 439.224H733.731ZM731.323 423.516H743.811L741.095 426.54H734.179L731.323 423.516ZM730.427 437.236V424.72L733.451 427.436V434.38L730.427 437.236ZM744.707 424.72V437.236L741.683 434.52V427.604L744.707 424.72ZM735.131 440.596H739.331C739.947 441.249 740.825 442.183 741.963 443.396C743.121 444.591 743.83 445.328 744.091 445.608L743.783 449.64C741.114 446.84 739.751 445.412 739.695 445.356C739.658 445.3 739.602 445.244 739.527 445.188C739.453 445.132 739.397 445.076 739.359 445.02L735.131 440.596ZM596.144 510.216L599.168 513.128V519.988L596.144 522.732V510.216ZM599.364 511.224C598.711 510.683 598.057 510.169 597.404 509.684L599.364 508.2H607.036L608.996 509.684L607.036 511.224H599.364ZM596.956 495.516H609.444L606.728 498.54H599.812L596.956 495.516ZM596.06 509.236V496.72L599.084 499.436V506.38L596.06 509.236ZM610.34 496.72V509.236L607.316 506.52V499.604L610.34 496.72ZM640.905 510.216L643.929 513.128V519.988L640.905 522.732V510.216ZM655.157 522.732L652.133 519.848V512.96L655.157 510.216V522.732ZM644.153 511.224C643.5 510.701 642.837 510.188 642.165 509.684L644.153 508.2H651.797L653.757 509.684L651.797 511.224H644.153ZM641.717 495.516H654.233L651.461 498.54H644.601L641.717 495.516ZM640.821 509.236V496.72L643.845 499.436V506.38L640.821 509.236ZM655.073 496.72V509.236L652.049 506.52V499.604L655.073 496.72ZM686.954 523.964L689.838 520.94H696.754L699.498 523.964H686.954ZM686.142 510.216L689.138 513.128V519.988L686.142 522.732V510.216ZM686.926 495.516H699.414L696.698 498.54H689.782L686.926 495.516ZM686.058 509.236V496.72L689.054 499.436V506.38L686.058 509.236ZM733.787 513.8V519.988L730.791 522.732V510.216L733.787 513.8ZM739.639 517.02C739.658 517.039 739.705 517.085 739.779 517.16C739.873 517.235 739.938 517.3 739.975 517.356C739.975 517.375 739.985 517.384 740.003 517.384L740.031 517.44L744.119 521.64L739.639 517.02ZM739.639 502.376C739.658 502.357 739.705 502.311 739.779 502.236C739.873 502.161 739.938 502.096 739.975 502.04L740.003 502.012C740.022 501.993 740.031 501.975 740.031 501.956L744.119 497.756L739.639 502.376ZM730.791 510.216L733.787 513.128V519.988L730.791 522.732V510.216ZM734.011 511.224C733.339 510.683 732.705 510.169 732.107 509.684L734.011 508.2H734.151L736.083 509.684L734.151 511.224H734.011ZM730.735 509.236V496.72L733.731 499.436V506.38L730.735 509.236ZM735.411 512.596H739.583C740.218 513.231 741.095 514.145 742.215 515.34C743.354 516.535 744.073 517.291 744.371 517.608L744.119 521.64L740.031 517.44L740.003 517.412C739.985 517.393 739.975 517.375 739.975 517.356L739.639 517.02L735.411 512.596ZM735.411 506.8L739.639 502.376C739.658 502.357 739.705 502.311 739.779 502.236C739.873 502.161 739.938 502.096 739.975 502.04L740.003 502.012C740.022 501.993 740.031 501.975 740.031 501.956L744.119 497.756L744.371 501.788C744.073 502.105 743.354 502.861 742.215 504.056C741.095 505.251 740.218 506.165 739.583 506.8H735.411ZM775.272 510.216L778.296 513.128V519.988L775.272 522.732V510.216ZM789.524 522.732L786.5 519.848V512.96L789.524 510.216V522.732ZM778.52 511.224C777.867 510.701 777.204 510.188 776.532 509.684L778.52 508.2H786.164L788.124 509.684L786.164 511.224H778.52ZM776.084 495.516H788.6L785.828 498.54H778.968L776.084 495.516ZM775.188 509.236V496.72L778.212 499.436V506.38L775.188 509.236ZM789.44 496.72V509.236L786.416 506.52V499.604L789.44 496.72ZM820.901 523.964L823.785 520.94H830.701L833.417 523.964H820.901ZM820.061 510.216L823.085 513.128V519.988L820.061 522.732V510.216ZM834.313 522.732L831.289 519.848V512.96L834.313 510.216V522.732ZM823.309 511.224C822.656 510.701 821.993 510.188 821.321 509.684L823.309 508.2H830.953L832.913 509.684L830.953 511.224H823.309ZM820.873 495.516H833.389L830.617 498.54H823.757L820.873 495.516ZM819.977 509.236V496.72L823.001 499.436V506.38L819.977 509.236ZM866.11 523.964L868.994 520.94H875.91L878.654 523.964H866.11ZM865.298 510.216L868.294 513.128V519.988L865.298 522.732V510.216ZM868.518 511.224C867.828 510.683 867.174 510.169 866.558 509.684L868.518 508.2H876.162L878.122 509.684L876.162 511.224H868.518ZM866.082 495.516H878.57L875.854 498.54H868.938L866.082 495.516ZM865.214 509.236V496.72L868.21 499.436V506.38L865.214 509.236ZM910.479 523.964L913.363 520.94H920.279L922.995 523.964H910.479ZM923.891 522.732L920.867 519.848V512.96L923.891 510.216V522.732ZM912.887 511.224C912.234 510.701 911.571 510.188 910.899 509.684L912.887 508.2H920.531L922.491 509.684L920.531 511.224H912.887ZM910.451 495.516H922.967L920.195 498.54H913.335L910.451 495.516ZM909.555 509.236V496.72L912.579 499.436V506.38L909.555 509.236Z" fill="white"/>
<path d="M251.853 474.547C252.927 475.622 253.531 477.08 253.531 478.601C253.531 480.121 252.927 481.579 251.853 482.654L226.053 508.454C224.977 509.529 223.519 510.133 221.999 510.133C220.479 510.133 219.021 509.529 217.946 508.454L192.146 482.654C191.101 481.573 190.523 480.124 190.536 478.621C190.55 477.118 191.153 475.68 192.216 474.617C193.279 473.554 194.717 472.951 196.22 472.938C197.723 472.925 199.171 473.503 200.253 474.547L216.266 490.067V435.601C216.266 434.08 216.87 432.622 217.945 431.546C219.02 430.471 220.479 429.867 221.999 429.867C223.52 429.867 224.978 430.471 226.053 431.546C227.128 432.622 227.732 434.08 227.732 435.601V490.067L243.746 474.547C244.821 473.472 246.279 472.868 247.799 472.868C249.319 472.868 250.777 473.472 251.853 474.547Z" fill="white"/>
</g>
<defs>
<filter id="filter0_d_508_1415" x="-4" y="0" width="1414.92" height="632" filterUnits="userSpaceOnUse" color-interpolation-filters="sRGB">
<feFlood flood-opacity="0" result="BackgroundImageFix"/>
<feColorMatrix in="SourceAlpha" type="matrix" values="0 0 0 0 0 0 0 0 0 0 0 0 0 0 0 0 0 0 127 0" result="hardAlpha"/>
<feOffset dy="46"/>
<feGaussianBlur stdDeviation="2"/>
<feComposite in2="hardAlpha" operator="out"/>
<feColorMatrix type="matrix" values="0 0 0 0 0 0 0 0 0 0 0 0 0 0 0 0 0 0 0.25 0"/>
<feBlend mode="normal" in2="BackgroundImageFix" result="effect1_dropShadow_508_1415"/>
<feBlend mode="normal" in="SourceGraphic" in2="effect1_dropShadow_508_1415" result="shape"/>
</filter>
<linearGradient id="paint0_linear_508_1415" x1="589" y1="0" x2="589" y2="12" gradientUnits="userSpaceOnUse">
<stop stop-color="white"/>
<stop offset="1" stop-color="#8B8B8B"/>
</linearGradient>
<linearGradient id="paint1_linear_508_1415" x1="454" y1="56" x2="466" y2="56" gradientUnits="userSpaceOnUse">
<stop stop-color="white"/>
<stop offset="1" stop-color="#8B8B8B"/>
</linearGradient>
<linearGradient id="paint2_linear_508_1415" x1="972" y1="59" x2="984" y2="59" gradientUnits="userSpaceOnUse">
<stop stop-color="white"/>
<stop offset="1" stop-color="#8B8B8B"/>
</linearGradient>
</defs>
</svg>
