<svg width="40" height="40" viewBox="0 0 40 40" fill="none" xmlns="http://www.w3.org/2000/svg">
<path d="M0 20C0 31.0275 8.9725 40 20 40C31.0275 40 40 31.0275 40 20C40 8.9725 31.0275 0 20 0C8.9725 0 0 8.9725 0 20ZM20 1.25C30.3387 1.25 38.75 9.66125 38.75 20C38.75 30.3387 30.3387 38.75 20 38.75C9.66125 38.75 1.25 30.3387 1.25 20C1.25 9.66125 9.66125 1.25 20 1.25Z" fill="#4EABAB"/>
<path d="M20 36.25C28.96 36.25 36.25 28.96 36.25 20C36.25 11.04 28.96 3.75 20 3.75C11.04 3.75 3.75 11.04 3.75 20C3.75 28.96 11.04 36.25 20 36.25ZM18.75 5.06375V6.97125C18.75 7.13701 18.8158 7.29598 18.9331 7.41319C19.0503 7.5304 19.2092 7.59625 19.375 7.59625C19.5408 7.59625 19.6997 7.5304 19.8169 7.41319C19.9342 7.29598 20 7.13701 20 6.97125V5C27.8487 5 34.2975 11.0625 34.9362 18.75H33.0275C32.8617 18.75 32.7028 18.8158 32.5856 18.9331C32.4683 19.0503 32.4025 19.2092 32.4025 19.375C32.4025 19.5408 32.4683 19.6997 32.5856 19.8169C32.7028 19.9342 32.8617 20 33.0275 20H35C35 28.2712 28.2712 35 20 35V33.0288C20 32.863 19.9342 32.704 19.8169 32.5868C19.6997 32.4696 19.5408 32.4038 19.375 32.4038C19.2092 32.4038 19.0503 32.4696 18.9331 32.5868C18.8158 32.704 18.75 32.863 18.75 33.0288V34.9362C11.0637 34.2975 5 27.85 5 20H6.9725C7.13826 20 7.29723 19.9342 7.41444 19.8169C7.53165 19.6997 7.5975 19.5408 7.5975 19.375C7.5975 19.2092 7.53165 19.0503 7.41444 18.9331C7.29723 18.8158 7.13826 18.75 6.9725 18.75H5.06375C5.6675 11.4763 11.4763 5.6675 18.75 5.06375Z" fill="#4EABAB"/>
<path d="M11.7333 28.8015C11.8643 28.8016 11.992 28.7605 12.0983 28.684L19.1158 23.639C19.4008 23.709 19.6946 23.7553 20.0008 23.7553C22.0683 23.7553 23.7508 22.0728 23.7508 20.0053C23.7479 19.7158 23.7114 19.4276 23.6421 19.1465L28.7746 12.0065C28.8603 11.886 28.9005 11.739 28.8882 11.5916C28.8758 11.4442 28.8117 11.306 28.7072 11.2013C28.6027 11.0967 28.4646 11.0324 28.3172 11.0198C28.1698 11.0073 28.0228 11.0473 27.9021 11.1328L20.6796 16.324C20.4555 16.2805 20.2279 16.2575 19.9996 16.2553C17.9321 16.2553 16.2496 17.9378 16.2496 20.0053C16.2513 20.2495 16.2754 20.4874 16.3221 20.719L11.2258 27.8115C11.1591 27.905 11.1194 28.0151 11.111 28.1296C11.1027 28.2441 11.1259 28.3588 11.1783 28.461C11.2307 28.5632 11.3102 28.649 11.4081 28.7091C11.506 28.7691 11.6185 28.8011 11.7333 28.8015ZM17.5008 20.0065C17.5008 18.6278 18.6221 17.5065 20.0008 17.5065C21.3796 17.5065 22.5008 18.6278 22.5008 20.0065C22.5008 21.3853 21.3796 22.5065 20.0008 22.5065C18.6221 22.5065 17.5008 21.384 17.5008 20.0065ZM25.5308 14.379L23.0471 17.8353C22.7792 17.4573 22.4435 17.1322 22.0571 16.8765L25.5308 14.379ZM16.8821 22.084C17.1308 22.4565 17.4496 22.7753 17.8108 23.0378L14.4708 25.439L16.8821 22.084Z" fill="#4EABAB"/>
</svg>
