<svg width="13" height="13" viewBox="0 0 13 13" fill="none" xmlns="http://www.w3.org/2000/svg">
<path d="M2.91333 6.0654C3.87333 7.95207 5.42 9.49207 7.30667 10.4587L8.77333 8.99207C8.95333 8.81207 9.22 8.75207 9.45333 8.83207C10.2 9.07874 11.0067 9.21207 11.8333 9.21207C12.2 9.21207 12.5 9.51207 12.5 9.87874V12.2054C12.5 12.5721 12.2 12.8721 11.8333 12.8721C5.57333 12.8721 0.5 7.79874 0.5 1.53874C0.5 1.17207 0.8 0.87207 1.16667 0.87207H3.5C3.86667 0.87207 4.16667 1.17207 4.16667 1.53874C4.16667 2.37207 4.3 3.17207 4.54667 3.91874C4.62 4.15207 4.56667 4.41207 4.38 4.59874L2.91333 6.0654Z" fill="#008686"/>
</svg>
